<?xml version="1.0" encoding="UTF-8"?>
<svg width="62px" height="69px" viewBox="0 0 62 69" version="1.1" xmlns="http://www.w3.org/2000/svg" xmlns:xlink="http://www.w3.org/1999/xlink">
    <!-- Generator: Sketch 52.6 (67491) - http://www.bohemiancoding.com/sketch -->
    <title>logo</title>
    <desc>Created with Sketch.</desc>
    <g id="Page-1" stroke="none" stroke-width="1" fill="none" fill-rule="evenodd">
        <g id="logo">
            <path d="M57.614,58.886 C57.614,57.285 58.846,55.992 60.387,55.869 C60.51,55.869 60.633,55.746 60.633,55.561 L60.633,50.018 C60.633,49.895 60.51,49.772 60.387,49.711 C58.847,49.587 57.614,48.294 57.614,46.693 C57.614,45.092 58.846,43.799 60.387,43.676 C60.51,43.676 60.633,43.553 60.633,43.368 L60.633,37.825 C60.633,37.702 60.51,37.579 60.387,37.517 C58.847,37.394 57.614,36.101 57.614,34.5 C57.614,32.899 58.846,31.606 60.387,31.483 C60.51,31.483 60.633,31.359 60.633,31.175 L60.633,25.632 C60.633,25.509 60.51,25.386 60.387,25.324 C58.847,25.201 57.614,23.908 57.614,22.307 C57.614,20.706 58.846,19.413 60.387,19.29 C60.51,19.29 60.633,19.166 60.633,18.982 L60.633,13.439 C60.633,13.316 60.51,13.193 60.387,13.132 C58.847,13.008 57.614,11.715 57.614,10.114 C57.614,8.513 58.846,7.22 60.387,7.097 C60.51,7.097 60.633,6.973 60.633,6.789 L60.633,1.246 C60.633,1.062 60.51,0.938 60.325,0.938 L55.395,0.938 C55.211,0.938 55.087,1.062 55.087,1.246 C55.087,2.786 53.855,4.018 52.314,4.018 C50.774,4.018 49.542,2.786 49.542,1.246 C49.603,1.123 49.48,1 49.295,1 L44.365,1 C44.181,1 44.058,1.123 44.058,1.308 C44.058,2.848 42.825,4.079 41.285,4.079 C39.745,4.079 38.512,2.847 38.512,1.308 C38.512,1.123 38.389,1 38.204,1 L33.274,1 C33.089,1 32.966,1.123 32.966,1.308 C32.966,2.848 31.734,4.079 30.193,4.079 C28.653,4.079 27.42,2.847 27.42,1.308 C27.42,1.123 27.297,1 27.112,1 L22.182,1 C21.998,1 21.875,1.123 21.875,1.308 C21.875,2.848 20.642,4.079 19.102,4.079 C17.562,4.079 16.329,2.847 16.329,1.308 C16.329,1.123 16.206,1 16.021,1 L11.091,1 C10.907,1 10.783,1.123 10.783,1.308 C10.783,2.848 9.551,4.079 8.01,4.079 C6.47,4.079 5.238,2.847 5.238,1.308 C5.484,1.123 5.361,1 5.238,1 L0.308,1 C0.123,1 0,1.123 0,1.308 L0,6.85 C0,6.973 0.123,7.097 0.246,7.158 C1.787,7.281 3.019,8.575 3.019,10.176 C3.019,11.776 1.787,13.07 0.246,13.193 C0.123,13.193 0,13.316 0,13.439 L0,18.982 C0,19.105 0.123,19.228 0.246,19.29 C1.849,19.413 3.019,20.706 3.019,22.307 C3.019,23.908 1.787,25.201 0.246,25.325 C0.123,25.386 0,25.509 0,25.632 L0,31.175 C0,31.298 0.123,31.421 0.246,31.483 C1.787,31.606 3.019,32.899 3.019,34.5 C3.019,36.101 1.787,37.394 0.246,37.517 C0.123,37.517 0,37.641 0,37.825 L0,43.368 C0,43.491 0.123,43.614 0.246,43.676 C1.787,43.799 3.019,45.092 3.019,46.693 C3.019,48.294 1.787,49.587 0.246,49.711 C0.123,49.711 0,49.834 0,50.018 L0,55.561 C0,55.684 0.123,55.807 0.246,55.807 C1.849,55.992 3.019,57.285 3.019,58.887 C3.019,60.487 1.787,61.78 0.246,61.904 C0.123,61.904 0,62.027 0,62.211 L0,67.754 C0,67.938 0.123,68.062 0.308,68.062 L5.238,68.062 C5.361,68.062 5.484,67.939 5.546,67.815 C5.669,66.399 6.84,65.29 8.319,65.29 C9.797,65.29 10.907,66.399 11.091,67.815 C11.091,67.939 11.215,68.062 11.4,68.062 L16.39,68.062 C16.514,68.062 16.637,67.939 16.699,67.815 C16.822,66.399 17.993,65.29 19.472,65.29 C20.889,65.29 22.06,66.399 22.244,67.815 C22.244,67.939 22.368,68.062 22.553,68.062 L27.543,68.062 C27.667,68.062 27.79,67.939 27.852,67.815 C27.975,66.399 29.146,65.29 30.625,65.29 C32.103,65.29 33.213,66.399 33.398,67.815 C33.398,67.939 33.521,68.062 33.706,68.062 L38.696,68.062 C38.82,68.062 38.943,67.939 39.005,67.815 C39.128,66.399 40.299,65.29 41.778,65.29 C43.195,65.29 44.366,66.399 44.551,67.815 C44.551,67.939 44.674,68.062 44.859,68.062 L49.849,68.062 C49.973,68.062 50.096,67.939 50.158,67.815 C50.281,66.399 51.452,65.29 52.931,65.29 C54.348,65.29 55.519,66.399 55.704,67.815 C55.704,67.939 55.827,68.062 56.012,68.062 L60.942,68.062 C61.126,68.062 61.249,67.939 61.249,67.754 L61.249,62.21 C61.249,62.087 61.126,61.964 61.003,61.903 C58.785,61.779 57.613,60.486 57.613,58.885 L57.614,58.886 Z" id="Path" fill="#040651"></path>
            <path d="M30.625,27.357 C30.625,28.219 31.303,28.897 32.165,28.897 C33.028,28.897 33.705,28.219 33.705,27.357 C33.705,26.495 33.028,25.817 32.165,25.817 C31.303,25.817 30.625,26.495 30.625,27.357 Z" id="Path" fill="#F4F5FA"></path>
            <path d="M32.288,10.299 L13.002,10.299 C11.399,10.299 10.105,11.592 10.105,13.193 L10.105,57.285 C10.105,58.024 10.722,58.64 11.461,58.64 L17.623,58.64 C19.41,58.64 20.889,57.285 21.073,55.5 L22.06,46.447 C22.43,43.367 22.737,40.35 23.046,37.271 L23.046,37.21 C23.046,36.963 23.107,36.779 23.107,36.532 C23.415,33.638 23.785,30.744 24.093,27.849 C24.463,24.524 26.866,21.876 30.008,21.445 C33.213,21.014 35.924,22.553 37.341,25.509 C37.526,25.94 37.772,26.309 38.081,26.741 L39.683,28.958 L39.744,29.019 C40.299,29.697 40.854,30.313 41.408,30.929 C41.716,31.298 41.469,31.791 40.977,31.791 L38.45,31.791 C36.602,31.791 36.232,32.345 36.786,34.069 C37.896,37.579 39.066,41.089 40.237,44.661 C40.668,46.016 42.332,46.57 43.503,45.769 C48.124,42.567 51.267,37.456 51.883,31.544 C52.993,19.967 44.057,10.3 32.288,10.3 L32.288,10.299 Z" id="Path" fill="#E75760"></path>
        </g>
    </g>
</svg>